# xmcd
#
# Track frame offsets: 
#        150
#        11935
#        35565
#        48685
#        66890
#        76765
#        93493
#        113318
#        126788
#        140495
#
# Disc length: 2048 seconds
#
# Revision: 0
# Processed by: cddbd v1.5.2PL0 Copyright (c) Steve Scherf et al.
# Submitted via: ExactAudioCopy v0.99pb5
#
DISCID=8207fe0a
DTITLE=Country Time Special - Highlights
DYEAR=1994
DGENRE=Country
TTITLE0=Waiting for a train
TTITLE1=Blue bayou
TTITLE2=Help me make it through the night
TTITLE3=Long black limousine
TTITLE4=Move it on over
TTITLE5=There goes my everything
TTITLE6=Me and Bobby Mc Gee
TTITLE7=Blue moon of Kentucky
TTITLE8=Curley Joe
TTITLE9=Rose
EXTD=
EXTT0=
EXTT1=
EXTT2=
EXTT3=
EXTT4=
EXTT5=
EXTT6=
EXTT7=
EXTT8=
EXTT9=
PLAYORDER=
